<svg width="640" height="606" viewBox="0 0 640 606" fill="none" xmlns="http://www.w3.org/2000/svg">
<g opacity="0.4">
<path fill-rule="evenodd" clip-rule="evenodd" d="M365.452 505.924C336.682 505.924 301.93 503.601 276.693 493.862L228.078 570.916C277.624 602.364 302.009 606 365.452 606C482.764 606 585.202 535.871 640 443.118L558.337 396.924C519.807 462.097 447.858 505.924 365.452 505.924Z" fill="#FFC700"/>
<path fill-rule="evenodd" clip-rule="evenodd" d="M361.918 92.343C444.324 92.343 516.272 136.171 554.803 201.343L636.466 155.149C581.621 62.3963 479.229 0 361.918 0C298.428 0 244.421 21.2349 194.829 52.6834L272.908 112.893C298.145 103.153 333.101 92.343 361.918 92.343Z" fill="#FFC700"/>
<path fill-rule="evenodd" clip-rule="evenodd" d="M163.673 366.367C141.731 289.072 158.417 215.798 212.714 162.304L140.364 98.8688C63.0916 175.008 40.9676 280.919 72.203 390.954C89.1077 450.505 119.317 492.945 163.673 531.088L212.714 457.568C196.346 436.489 171.345 393.396 163.673 366.367Z" fill="#FFC700"/>
<path d="M483.455 307.128C475.113 362.551 419.405 400.505 359.028 391.9C298.65 383.295 256.468 331.389 264.81 275.965C273.152 220.541 328.86 182.587 389.237 191.193C449.614 199.798 491.797 251.704 483.455 307.128Z" fill="#FFC700"/>
<rect x="270.33" y="268.793" width="72.1861" height="143.356" fill="#FFC700"/>
<path d="M439.97 301.787C434.967 335.024 401.56 357.785 365.353 352.624C329.145 347.464 303.849 316.337 308.851 283.1C313.854 249.863 347.261 227.102 383.469 232.263C419.676 237.423 444.972 268.55 439.97 301.787Z" fill="#FFFFFD"/>
</g>
</svg>
