<svg width="114" height="27" viewBox="0 0 114 27" fill="none" xmlns="http://www.w3.org/2000/svg">
<g clip-path="url(#clip0_1_764)">
<path fill-rule="evenodd" clip-rule="evenodd" d="M13.7069 21.8715C12.628 21.8715 11.3248 21.7756 10.3784 21.3738L8.5553 24.5526C10.4133 25.85 11.3277 26 13.7069 26C18.106 26 21.9475 23.1069 24.0024 19.2805L20.9401 17.3748C19.4952 20.0634 16.7971 21.8715 13.7069 21.8715Z" fill="#FFC700"/>
<path fill-rule="evenodd" clip-rule="evenodd" d="M13.5742 4.80953C16.6645 4.80953 19.3626 6.6176 20.8075 9.30624L23.8698 7.40054C21.8131 3.57411 17.9734 1 13.5742 1C11.1934 1 9.16813 1.87603 7.30841 3.17341L10.2364 5.6573C11.1828 5.25551 12.4936 4.80953 13.5742 4.80953Z" fill="#FFC700"/>
<path fill-rule="evenodd" clip-rule="evenodd" d="M6.14014 16.1141C5.31733 12.9254 5.94304 9.90252 7.97918 7.69568L5.26607 5.07872C2.36834 8.21978 1.53869 12.589 2.71002 17.1284C3.34395 19.5852 4.4768 21.336 6.14014 22.9095L7.97918 19.8766C7.36541 19.007 6.42787 17.2292 6.14014 16.1141Z" fill="#FFC700"/>
<path d="M18.1319 13.6703C17.8191 15.9568 15.73 17.5225 13.4659 17.1675C11.2018 16.8125 9.61989 14.6712 9.93272 12.3847C10.2455 10.0983 12.3346 8.53251 14.5987 8.88751C16.8629 9.24252 18.4448 11.3839 18.1319 13.6703Z" fill="#FFC700"/>
<rect x="10.1396" y="12.0888" width="2.70698" height="5.91404" fill="#FFC700"/>
<path d="M16.5012 13.45C16.3136 14.8211 15.0608 15.7601 13.7031 15.5472C12.3453 15.3343 11.3967 14.0502 11.5843 12.679C11.7719 11.3079 13.0246 10.3689 14.3824 10.5818C15.7402 10.7947 16.6888 12.0788 16.5012 13.45Z" fill="#FFFFFD"/>
</g>
<path d="M32.56 13.4C32.56 12.3013 32.8053 11.32 33.296 10.456C33.7973 9.58133 34.4747 8.904 35.328 8.424C36.192 7.93333 37.1573 7.688 38.224 7.688C39.472 7.688 40.5653 8.008 41.504 8.648C42.4427 9.288 43.0987 10.1733 43.472 11.304H40.896C40.64 10.7707 40.2773 10.3707 39.808 10.104C39.3493 9.83733 38.816 9.704 38.208 9.704C37.5573 9.704 36.976 9.85867 36.464 10.168C35.9627 10.4667 35.568 10.8933 35.28 11.448C35.0027 12.0027 34.864 12.6533 34.864 13.4C34.864 14.136 35.0027 14.7867 35.28 15.352C35.568 15.9067 35.9627 16.3387 36.464 16.648C36.976 16.9467 37.5573 17.096 38.208 17.096C38.816 17.096 39.3493 16.9627 39.808 16.696C40.2773 16.4187 40.64 16.0133 40.896 15.48H43.472C43.0987 16.6213 42.4427 17.512 41.504 18.152C40.576 18.7813 39.4827 19.096 38.224 19.096C37.1573 19.096 36.192 18.856 35.328 18.376C34.4747 17.8853 33.7973 17.208 33.296 16.344C32.8053 15.48 32.56 14.4987 32.56 13.4ZM52.2333 16.872H47.7853L47.0493 19H44.6973L48.7133 7.816H51.3213L55.3373 19H52.9693L52.2333 16.872ZM51.6253 15.08L50.0093 10.408L48.3932 15.08H51.6253ZM62.5984 19L60.1344 14.648H59.0784V19H56.8384V7.832H61.0304C61.8944 7.832 62.6304 7.98667 63.2384 8.296C63.8464 8.59467 64.2997 9.00533 64.5984 9.528C64.9077 10.04 65.0624 10.616 65.0624 11.256C65.0624 11.992 64.849 12.6587 64.4224 13.256C63.9957 13.8427 63.361 14.248 62.5184 14.472L65.1904 19H62.5984ZM59.0784 12.968H60.9504C61.5584 12.968 62.0117 12.824 62.3104 12.536C62.609 12.2373 62.7584 11.8267 62.7584 11.304C62.7584 10.792 62.609 10.3973 62.3104 10.12C62.0117 9.832 61.5584 9.688 60.9504 9.688H59.0784V12.968ZM75.2324 11.288C75.2324 11.8853 75.0884 12.4453 74.8004 12.968C74.523 13.4907 74.0804 13.912 73.4724 14.232C72.875 14.552 72.1177 14.712 71.2004 14.712H69.3284V19H67.0884V7.832H71.2004C72.0644 7.832 72.8004 7.98133 73.4084 8.28C74.0164 8.57867 74.4697 8.98933 74.7684 9.512C75.0777 10.0347 75.2324 10.6267 75.2324 11.288ZM71.1044 12.904C71.723 12.904 72.1817 12.7653 72.4804 12.488C72.779 12.2 72.9284 11.8 72.9284 11.288C72.9284 10.2 72.3204 9.656 71.1044 9.656H69.3284V12.904H71.1044ZM82.5828 19L80.1188 14.648H79.0628V19H76.8228V7.832H81.0148C81.8788 7.832 82.6148 7.98667 83.2228 8.296C83.8308 8.59467 84.2841 9.00533 84.5828 9.528C84.8921 10.04 85.0468 10.616 85.0468 11.256C85.0468 11.992 84.8334 12.6587 84.4068 13.256C83.9801 13.8427 83.3454 14.248 82.5028 14.472L85.1748 19H82.5828ZM79.0628 12.968H80.9348C81.5428 12.968 81.9961 12.824 82.2948 12.536C82.5934 12.2373 82.7428 11.8267 82.7428 11.304C82.7428 10.792 82.5934 10.3973 82.2948 10.12C81.9961 9.832 81.5428 9.688 80.9348 9.688H79.0628V12.968ZM89.3128 7.832V19H87.0728V7.832H89.3128ZM103.702 7.832V19H101.462V11.736L98.4699 19H96.7739L93.7659 11.736V19H91.5259V7.832H94.0699L97.6219 16.136L101.174 7.832H103.702ZM108.157 9.64V12.44H111.917V14.216H108.157V17.176H112.397V19H105.917V7.816H112.397V9.64H108.157Z" fill="#FFC700"/>
<defs>
<clipPath id="clip0_1_764">
<rect width="24" height="25.7219" fill="white" transform="translate(0 0.639038)"/>
</clipPath>
</defs>
</svg>
