<svg width="48" height="48" viewBox="0 0 48 48" fill="none" xmlns="http://www.w3.org/2000/svg">
<path d="M33.5001 7.12V4C33.5001 3.18 32.8201 2.5 32.0001 2.5C31.1801 2.5 30.5001 3.18 30.5001 4V7H17.5001V4C17.5001 3.18 16.8201 2.5 16.0001 2.5C15.1801 2.5 14.5001 3.18 14.5001 4V7.12C9.10006 7.62 6.48006 10.84 6.08006 15.62C6.04006 16.2 6.52006 16.68 7.08006 16.68H40.9201C41.5001 16.68 41.9801 16.18 41.9201 15.62C41.5201 10.84 38.9001 7.62 33.5001 7.12Z" fill="#FFC700"/>
<path d="M40.0001 19.68H8.00006C6.90006 19.68 6.00006 20.58 6.00006 21.68V34C6.00006 40 9.00006 44 16.0001 44H32.0001C39.0001 44 42.0001 40 42.0001 34V21.68C42.0001 20.58 41.1001 19.68 40.0001 19.68ZM18.4201 36.42C18.3201 36.5 18.2201 36.6 18.1201 36.66C18.0001 36.74 17.8801 36.8 17.7601 36.84C17.6401 36.9 17.5201 36.94 17.4001 36.96C17.2601 36.98 17.1401 37 17.0001 37C16.7401 37 16.4801 36.94 16.2401 36.84C15.9801 36.74 15.7801 36.6 15.5801 36.42C15.2201 36.04 15.0001 35.52 15.0001 35C15.0001 34.48 15.2201 33.96 15.5801 33.58C15.7801 33.4 15.9801 33.26 16.2401 33.16C16.6001 33 17.0001 32.96 17.4001 33.04C17.5201 33.06 17.6401 33.1 17.7601 33.16C17.8801 33.2 18.0001 33.26 18.1201 33.34C18.2201 33.42 18.3201 33.5 18.4201 33.58C18.7801 33.96 19.0001 34.48 19.0001 35C19.0001 35.52 18.7801 36.04 18.4201 36.42ZM18.4201 29.42C18.0401 29.78 17.5201 30 17.0001 30C16.4801 30 15.9601 29.78 15.5801 29.42C15.2201 29.04 15.0001 28.52 15.0001 28C15.0001 27.48 15.2201 26.96 15.5801 26.58C16.1401 26.02 17.0201 25.84 17.7601 26.16C18.0201 26.26 18.2401 26.4 18.4201 26.58C18.7801 26.96 19.0001 27.48 19.0001 28C19.0001 28.52 18.7801 29.04 18.4201 29.42ZM25.4201 36.42C25.0401 36.78 24.5201 37 24.0001 37C23.4801 37 22.9601 36.78 22.5801 36.42C22.2201 36.04 22.0001 35.52 22.0001 35C22.0001 34.48 22.2201 33.96 22.5801 33.58C23.3201 32.84 24.6801 32.84 25.4201 33.58C25.7801 33.96 26.0001 34.48 26.0001 35C26.0001 35.52 25.7801 36.04 25.4201 36.42ZM25.4201 29.42C25.3201 29.5 25.2201 29.58 25.1201 29.66C25.0001 29.74 24.8801 29.8 24.7601 29.84C24.6401 29.9 24.5201 29.94 24.4001 29.96C24.2601 29.98 24.1401 30 24.0001 30C23.4801 30 22.9601 29.78 22.5801 29.42C22.2201 29.04 22.0001 28.52 22.0001 28C22.0001 27.48 22.2201 26.96 22.5801 26.58C22.7601 26.4 22.9801 26.26 23.2401 26.16C23.9801 25.84 24.8601 26.02 25.4201 26.58C25.7801 26.96 26.0001 27.48 26.0001 28C26.0001 28.52 25.7801 29.04 25.4201 29.42ZM32.4201 36.42C32.0401 36.78 31.5201 37 31.0001 37C30.4801 37 29.9601 36.78 29.5801 36.42C29.2201 36.04 29.0001 35.52 29.0001 35C29.0001 34.48 29.2201 33.96 29.5801 33.58C30.3201 32.84 31.6801 32.84 32.4201 33.58C32.7801 33.96 33.0001 34.48 33.0001 35C33.0001 35.52 32.7801 36.04 32.4201 36.42ZM32.4201 29.42C32.3201 29.5 32.2201 29.58 32.1201 29.66C32.0001 29.74 31.8801 29.8 31.7601 29.84C31.6401 29.9 31.5201 29.94 31.4001 29.96C31.2601 29.98 31.1201 30 31.0001 30C30.4801 30 29.9601 29.78 29.5801 29.42C29.2201 29.04 29.0001 28.52 29.0001 28C29.0001 27.48 29.2201 26.96 29.5801 26.58C29.7801 26.4 29.9801 26.26 30.2401 26.16C30.6001 26 31.0001 25.96 31.4001 26.04C31.5201 26.06 31.6401 26.1 31.7601 26.16C31.8801 26.2 32.0001 26.26 32.1201 26.34C32.2201 26.42 32.3201 26.5 32.4201 26.58C32.7801 26.96 33.0001 27.48 33.0001 28C33.0001 28.52 32.7801 29.04 32.4201 29.42Z" fill="#FFC700"/>
</svg>
