<svg width="20" height="20" viewBox="0 0 20 20" fill="none" xmlns="http://www.w3.org/2000/svg">
<path d="M9.42131 4.02148C9.42131 3.9806 9.42131 3.95419 9.42131 3.92778C9.42131 3.29771 9.4201 2.66763 9.42198 2.03756C9.42291 1.72159 9.66942 1.46607 9.97812 1.45427C10.3037 1.44194 10.5776 1.70443 10.5783 2.03327C10.5796 2.65664 10.5787 3.28001 10.5787 3.90338C10.5787 3.99347 10.5796 3.99454 10.6541 3.95017C11.0697 3.70229 11.4847 3.45348 11.9004 3.20588C12.2583 2.99272 12.6978 3.18711 12.7785 3.59357C12.8262 3.8338 12.7121 4.0743 12.4842 4.21091C12.0577 4.46642 11.6306 4.72127 11.204 4.97665C11.0146 5.09006 10.826 5.20481 10.6356 5.31662C10.5942 5.34102 10.5777 5.3693 10.5777 5.4181C10.5789 6.51295 10.5785 7.60767 10.5788 8.70252C10.5788 8.77504 10.585 8.77813 10.6488 8.74126C11.5652 8.21026 12.4802 7.67684 13.3998 7.15147C13.508 7.08967 13.5473 7.02679 13.5458 6.90346C13.5418 6.5596 13.5522 6.21561 13.5585 5.87175C13.5648 5.53017 13.573 5.18859 13.5803 4.84701C13.587 4.53493 13.8359 4.28424 14.143 4.28035C14.4618 4.27633 14.7321 4.51736 14.7343 4.83119C14.7374 5.24195 14.7219 5.65283 14.7147 6.06372C14.7132 6.15086 14.7143 6.238 14.7112 6.325C14.7093 6.37876 14.727 6.38077 14.7685 6.3565C15.0361 6.20019 15.3045 6.04522 15.5728 5.88998C15.8565 5.7259 16.1398 5.56087 16.4244 5.39839C16.6512 5.26903 16.9597 5.32815 17.1372 5.53205C17.3139 5.73501 17.3214 6.04335 17.1575 6.26347C17.0971 6.34484 17.0164 6.39846 16.9311 6.4478C16.3964 6.7568 15.8615 7.06567 15.3267 7.37481C15.3175 7.38017 15.3092 7.38701 15.2917 7.39948C15.3808 7.44975 15.4633 7.4964 15.546 7.54278C15.9173 7.75151 16.2887 7.95984 16.6597 8.16883C16.9423 8.32809 17.0398 8.67061 16.8866 8.96393C16.7505 9.22427 16.4006 9.33996 16.1279 9.19733C15.8001 9.02587 15.4808 8.83805 15.1582 8.65681C14.8277 8.47127 14.4972 8.2856 14.1674 8.09886C14.1313 8.07834 14.1024 8.0821 14.0681 8.10194C13.1848 8.61458 12.3013 9.12654 11.4177 9.63865C11.3502 9.67779 11.2835 9.71854 11.2147 9.75514C11.1681 9.77981 11.1716 9.79456 11.2151 9.81949C11.4356 9.94591 11.655 10.0745 11.8749 10.202C12.2646 10.4276 12.6546 10.6531 13.0445 10.8784C13.3804 11.0727 13.7166 11.2661 14.0517 11.4617C14.0931 11.486 14.1246 11.4876 14.1675 11.4633C14.8054 11.1011 15.444 10.7401 16.0832 10.3803C16.3513 10.2294 16.7036 10.3329 16.8611 10.6056C17.0188 10.8785 16.924 11.2325 16.6422 11.3968C16.3533 11.5653 16.0602 11.7265 15.7691 11.891C15.6234 11.9731 15.4783 12.0561 15.332 12.1371C15.2898 12.1604 15.2835 12.1754 15.3302 12.2024C15.7691 12.4547 16.2072 12.7079 16.6453 12.9617C16.7765 13.0377 16.9093 13.1114 17.036 13.1944C17.226 13.3191 17.3146 13.5723 17.2579 13.8037C17.2015 14.0332 17.008 14.2057 16.7825 14.2363C16.636 14.2561 16.5043 14.2229 16.3791 14.1504C15.8696 13.8553 15.3603 13.5602 14.8504 13.266C14.8226 13.2499 14.792 13.2136 14.7628 13.2299C14.7325 13.2469 14.7501 13.2916 14.7505 13.3238C14.7553 13.699 14.7602 14.0742 14.7682 14.4494C14.7709 14.5744 14.7877 14.6996 14.7685 14.8239C14.7219 15.1235 14.459 15.3466 14.1782 15.3286C13.8563 15.308 13.6199 15.0652 13.6134 14.7434C13.6053 14.3481 13.6016 13.9528 13.5941 13.5576C13.588 13.2315 13.5779 12.9056 13.5723 12.5796C13.5715 12.5307 13.5462 12.5084 13.5096 12.4872C13.0171 12.203 12.525 11.9182 12.0327 11.6337C11.5712 11.3672 11.1097 11.1008 10.648 10.8346C10.5821 10.7966 10.5792 10.798 10.5792 10.8725C10.5789 11.9651 10.5793 13.0577 10.578 14.1502C10.578 14.199 10.5951 14.2278 10.636 14.2522C11.1763 14.5741 11.7158 14.8972 12.2554 15.2201C12.3415 15.2716 12.4275 15.3234 12.5126 15.3765C12.7852 15.5468 12.8686 15.8979 12.7032 16.175C12.5434 16.4428 12.1865 16.5311 11.9122 16.3682C11.4923 16.1189 11.0738 15.8672 10.6544 15.6171C10.6342 15.605 10.6133 15.5781 10.5899 15.5914C10.5665 15.6046 10.5792 15.6365 10.5792 15.6599C10.5785 16.2876 10.5799 16.9156 10.578 17.5434C10.5771 17.871 10.2993 18.1344 9.97518 18.12C9.66554 18.1061 9.42251 17.8514 9.42171 17.5341C9.4201 16.9331 9.42144 16.332 9.42064 15.731C9.42064 15.6965 9.43856 15.6477 9.40914 15.6305C9.38025 15.6136 9.34601 15.6522 9.31645 15.6699C8.91813 15.9076 8.52022 16.146 8.12271 16.3848C7.90242 16.5173 7.68146 16.521 7.46826 16.3768C7.12599 16.1453 7.13789 15.6321 7.49193 15.4106C7.79247 15.2227 8.0993 15.0448 8.40345 14.8625C8.72673 14.6688 9.04948 14.4742 9.37396 14.2824C9.42291 14.2535 9.42144 14.2134 9.42144 14.1681C9.42118 13.1113 9.42117 12.0544 9.42117 10.9976C9.42117 10.9551 9.42158 10.9127 9.42104 10.8702C9.42024 10.7996 9.41582 10.7965 9.35577 10.831C9.2049 10.9174 9.05429 11.0046 8.90382 11.0917C8.42138 11.3709 7.93893 11.6503 7.45662 11.9296C7.14404 12.1105 6.83173 12.2919 6.51835 12.4717C6.48224 12.4923 6.47113 12.5179 6.4694 12.5578C6.45696 12.8369 6.4603 13.1161 6.45549 13.3952C6.44773 13.8485 6.4405 14.3019 6.42967 14.7551C6.42245 15.0571 6.17608 15.3082 5.88222 15.3198C5.56657 15.3321 5.29625 15.112 5.27833 14.7992C5.26308 14.5324 5.28034 14.2638 5.28368 13.9959C5.28689 13.7391 5.29171 13.4822 5.29318 13.2254C5.29358 13.1666 5.2572 13.2051 5.24142 13.2141C5.08412 13.3029 4.92777 13.3932 4.77141 13.4837C4.38941 13.7049 4.00528 13.9227 3.62622 14.1492C3.28515 14.3529 2.91252 14.1951 2.78104 13.916C2.6489 13.6356 2.75683 13.3065 3.02581 13.1518C3.55346 12.8483 4.07951 12.5419 4.60582 12.2362C4.68046 12.1927 4.67925 12.1798 4.60275 12.1368C4.18303 11.9006 3.76198 11.6667 3.34414 11.4271C2.99357 11.2263 2.94516 10.7604 3.24195 10.487C3.42238 10.3206 3.70072 10.2954 3.92757 10.4232C4.55313 10.7756 5.17935 11.1267 5.80411 11.4803C5.85079 11.5067 5.88383 11.4995 5.92609 11.475C6.84791 10.9399 7.77027 10.4059 8.69263 9.87177C8.83855 9.78732 8.83962 9.78584 8.69343 9.70112C8.00447 9.30229 7.31498 8.90454 6.62575 8.50626C6.4076 8.38024 6.18918 8.25463 5.97224 8.12634C5.92984 8.10127 5.89814 8.10368 5.85627 8.12741C5.2144 8.49165 4.57212 8.85535 3.92877 9.2169C3.65378 9.37147 3.29947 9.26757 3.14592 8.99222C2.98983 8.71217 3.08734 8.36201 3.36781 8.20248C3.80385 7.95448 4.24081 7.70781 4.67711 7.4602C4.69584 7.44961 4.72607 7.44452 4.72647 7.42039C4.727 7.3921 4.6945 7.38674 4.67431 7.37508C4.12044 7.05454 3.56496 6.73656 3.0127 6.41335C2.75135 6.26025 2.65639 5.95138 2.77476 5.67428C2.90717 5.36421 3.3008 5.23752 3.59292 5.40737C4.12686 5.71785 4.66227 6.02578 5.19728 6.33452C5.26134 6.37152 5.26322 6.37085 5.26188 6.29484C5.25332 5.8125 5.24155 5.33016 5.23633 4.84782C5.23406 4.63158 5.33531 4.46495 5.51909 4.35475C5.90041 4.12605 6.38286 4.39752 6.39222 4.8442C6.39837 5.13229 6.40172 5.42038 6.4072 5.70847C6.41536 6.13719 6.42566 6.5659 6.43154 6.99462C6.43235 7.05615 6.4714 7.07398 6.51113 7.09704C6.91426 7.33084 7.31752 7.56437 7.72092 7.79776C8.2594 8.10931 8.79802 8.42073 9.33651 8.73215C9.35002 8.73992 9.36366 8.7477 9.37717 8.75534C9.40994 8.77384 9.42198 8.76016 9.42131 8.72665C9.42104 8.71324 9.42144 8.69984 9.42144 8.68643C9.42144 7.61169 9.42091 6.53708 9.42278 5.46234C9.42291 5.39812 9.40178 5.3634 9.34641 5.33069C8.94114 5.09167 8.53841 4.84849 8.13461 4.60691C7.93559 4.48787 7.7371 4.36789 7.53687 4.25086C7.2037 4.05607 7.11809 3.6543 7.34908 3.36138C7.5239 3.13965 7.85253 3.08429 8.10505 3.23523C8.51661 3.48123 8.92763 3.72803 9.33892 3.9743C9.36165 3.98797 9.38479 4.00071 9.42131 4.02148Z" fill="#959595"/>
</svg>
