<svg width="20" height="20" viewBox="0 0 20 20" fill="none" xmlns="http://www.w3.org/2000/svg">
<path d="M9.41676 17.6328C7.19407 17.6328 4.97138 17.633 2.74848 17.6326C2.51471 17.6326 2.28327 17.6123 2.06705 17.5141C1.81066 17.3978 1.66884 17.2129 1.66947 16.9144C1.67391 14.5894 1.67771 12.2646 1.66778 9.93966C1.66546 9.41802 1.82081 8.95725 2.08184 8.52099C2.3006 8.15555 2.59017 7.84738 2.88608 7.54471C4.04202 6.36277 5.37445 5.4222 6.83455 4.65559C7.72861 4.18637 8.65713 3.79894 9.6146 3.48105C10.6858 3.12532 11.7806 2.86408 12.8943 2.68125C13.5823 2.5686 14.2741 2.48764 14.9688 2.43353C15.8716 2.36315 16.7766 2.34984 17.6817 2.36843C18.0932 2.37689 18.3764 2.73282 18.3293 3.14329C18.2739 3.62541 18.2336 4.10922 18.186 4.59218C18.1401 5.05781 18.0924 5.52323 18.0471 5.98887C18.0008 6.46507 17.9571 6.94127 17.911 7.41747C17.8668 7.87613 17.8214 8.33478 17.7762 8.79344C17.7373 9.1889 17.6977 9.58436 17.6589 9.98003C17.6115 10.4596 17.5644 10.9392 17.5175 11.4188C17.4726 11.8774 17.4287 12.3361 17.3837 12.7945C17.3374 13.2671 17.2898 13.7395 17.2433 14.2121C17.2051 14.6006 17.1698 14.9895 17.1296 15.378C17.0751 15.9062 17.0438 16.4376 16.9603 16.962C16.8901 17.4022 16.5936 17.6333 16.1485 17.6331C13.9046 17.6326 11.6606 17.6328 9.41676 17.6328ZM4.04836 9.87012C4.07394 9.90373 4.11071 9.90394 4.14284 9.9107C4.4119 9.96862 4.68118 10.0014 4.95912 9.98087C5.55157 9.93712 6.04193 9.6949 6.43549 9.25484C6.49129 9.19249 6.54815 9.1722 6.62762 9.1722C8.86405 9.17347 11.1007 9.17326 13.3371 9.17305C14.4113 9.17305 15.4856 9.17178 16.5598 9.17495C16.6633 9.17516 16.6982 9.14684 16.7037 9.03968C16.7168 8.79048 16.7472 8.54234 16.7697 8.29357C16.81 7.84865 16.85 7.40394 16.8895 6.95902C16.921 6.6052 16.9521 6.25117 16.9823 5.89735C17.022 5.43489 17.0622 4.97242 17.0994 4.50975C17.1262 4.17664 17.1455 3.8429 17.1746 3.51022C17.1896 3.34028 17.1854 3.32844 17.0146 3.32612C16.4194 3.31766 15.8257 3.33859 15.2318 3.38298C14.6805 3.42419 14.1318 3.48401 13.5857 3.56538C12.7603 3.68818 11.9434 3.85474 11.1362 4.06821C9.9103 4.39244 8.72371 4.82088 7.58911 5.3886C6.68236 5.84239 5.82867 6.38052 5.03838 7.01694C4.87394 7.14946 4.71521 7.28917 4.5569 7.42888C4.46157 7.513 4.46453 7.51533 4.56831 7.57874C4.61333 7.60621 4.65856 7.63369 4.70084 7.6654C5.17218 8.01816 5.39876 8.49838 5.43976 9.0773C5.44716 9.18213 5.39686 9.24935 5.32647 9.31318C5.07875 9.53828 4.78961 9.68581 4.46876 9.77268C4.33138 9.80967 4.19082 9.83736 4.04836 9.87012ZM9.40028 16.5261C9.40028 16.5264 9.40028 16.5264 9.40028 16.5266C11.5625 16.5266 13.7248 16.5266 15.887 16.5261C15.9324 16.5261 15.9794 16.5266 16.0233 16.5164C16.1206 16.4942 16.1954 16.4086 16.1888 16.3366C16.1808 16.2493 16.1062 16.1958 15.987 16.1935C15.913 16.192 15.839 16.1926 15.765 16.1926C14.5465 16.1926 13.3282 16.193 12.1097 16.193C9.05301 16.193 5.99628 16.1928 2.93976 16.1928C2.89411 16.1928 2.84782 16.1913 2.80259 16.1964C2.71445 16.2061 2.66034 16.256 2.6521 16.3456C2.64385 16.4372 2.69458 16.4934 2.77765 16.5164C2.82055 16.5285 2.86832 16.5259 2.91376 16.5259C5.07579 16.5264 7.23804 16.5261 9.40028 16.5261ZM14.7685 10.5528C14.7685 10.5526 14.7685 10.5526 14.7685 10.5524C14.4449 10.5524 14.1211 10.5513 13.7975 10.5526C13.5542 10.5537 13.3777 10.7162 13.3718 10.9417C13.3661 11.1569 13.5394 11.3408 13.7776 11.3431C14.432 11.3494 15.0864 11.3492 15.7405 11.3429C15.9868 11.3406 16.1542 11.1609 16.1478 10.9354C16.1417 10.7124 15.9637 10.5532 15.7181 10.5528C15.4017 10.5524 15.0851 10.5528 14.7685 10.5528Z" fill="#959595"/>
</svg>
