<svg width="48" height="49" viewBox="0 0 48 49" fill="none" xmlns="http://www.w3.org/2000/svg">
<path d="M23.88 4.92003L19.06 16.14H14.24C13.44 16.14 12.66 16.2 11.9 16.36L13.9 11.56L13.98 11.38L14.1 11.06C14.16 10.92 14.2 10.8 14.26 10.7C16.58 5.32003 19.18 3.64003 23.88 4.92003Z" fill="#FFC700"/>
<path d="M37.46 16.68L37.42 16.66C36.22 16.32 35 16.14 33.76 16.14H21.24L25.74 5.68004L25.8 5.54004C26.08 5.64004 26.38 5.78004 26.68 5.88004L31.1 7.74004C33.56 8.76004 35.28 9.82004 36.34 11.1C36.52 11.34 36.68 11.56 36.84 11.82C37.02 12.1 37.16 12.38 37.24 12.68C37.32 12.86 37.38 13.02 37.42 13.2C37.72 14.22 37.74 15.38 37.46 16.68Z" fill="#FFC700"/>
<path d="M25.04 35.82H25.54C26.14 35.82 26.64 35.28 26.64 34.62C26.64 33.78 26.4 33.66 25.88 33.46L25.04 33.16V35.82Z" fill="#FFC700"/>
<path d="M36.58 19.54C35.68 19.28 34.74 19.14 33.76 19.14H14.24C12.88 19.14 11.6 19.4 10.4 19.92C6.92 21.42 4.48 24.88 4.48 28.9V32.8C4.48 33.28 4.52 33.74 4.58 34.22C5.02 40.58 8.42 43.98 14.78 44.4C15.24 44.46 15.7 44.5 16.2 44.5H31.8C39.2 44.5 43.1 40.98 43.48 33.98C43.5 33.6 43.52 33.2 43.52 32.8V28.9C43.52 24.48 40.58 20.76 36.58 19.54ZM26.56 31.5C27.48 31.82 28.72 32.5 28.72 34.62C28.72 36.44 27.3 37.9 25.54 37.9H25.04V38.34C25.04 38.92 24.58 39.38 24 39.38C23.42 39.38 22.96 38.92 22.96 38.34V37.9H22.78C20.86 37.9 19.28 36.28 19.28 34.28C19.28 33.7 19.74 33.24 20.32 33.24C20.9 33.24 21.36 33.7 21.36 34.28C21.36 35.12 22 35.82 22.78 35.82H22.96V32.44L21.44 31.9C20.52 31.58 19.28 30.9 19.28 28.78C19.28 26.96 20.7 25.5 22.46 25.5H22.96V25.06C22.96 24.48 23.42 24.02 24 24.02C24.58 24.02 25.04 24.48 25.04 25.06V25.5H25.22C27.14 25.5 28.72 27.12 28.72 29.12C28.72 29.7 28.26 30.16 27.68 30.16C27.1 30.16 26.64 29.7 26.64 29.12C26.64 28.28 26 27.58 25.22 27.58H25.04V30.96L26.56 31.5Z" fill="#FFC700"/>
<path d="M21.36 28.78C21.36 29.62 21.6 29.74 22.12 29.94L22.96 30.24V27.58H22.46C21.84 27.58 21.36 28.12 21.36 28.78Z" fill="#FFC700"/>
</svg>
