<svg width="18" height="15" viewBox="0 0 18 15" fill="none" xmlns="http://www.w3.org/2000/svg">
<path d="M8.76961 0.333252C8.92393 0.333252 9.07825 0.333252 9.23257 0.333252C9.27532 0.341714 9.31791 0.35033 9.36065 0.358331C10.3758 0.548651 11.0701 1.50779 10.9124 2.52709C10.8023 3.23853 10.3957 3.73487 9.73612 4.02427C9.67439 4.05135 9.65263 4.08397 9.65278 4.14997C9.65464 4.97034 9.65402 5.7907 9.65417 6.61091C9.65417 6.71092 9.65664 6.71323 9.75957 6.71323C11.0093 6.71323 12.2588 6.71292 13.5085 6.71369C13.5861 6.71369 13.6624 6.70492 13.7378 6.68984C14.3468 6.56799 14.7597 6.02826 14.7562 5.4653C14.7534 5.03465 14.7537 4.60401 14.7582 4.17336C14.7591 4.08812 14.7307 4.04674 14.6523 4.01412C13.9386 3.71702 13.4188 2.97251 13.4852 2.11953C13.5329 1.50579 13.8134 1.02391 14.3124 0.666813C14.5745 0.479108 14.8719 0.378794 15.1894 0.333252C15.3386 0.333252 15.4877 0.333252 15.6369 0.333252C15.6468 0.336021 15.6563 0.340176 15.6664 0.34156C16.1977 0.417258 16.6267 0.668044 16.9539 1.0913C17.1673 1.36732 17.2844 1.68319 17.3344 2.02568C17.3344 2.17953 17.3344 2.33339 17.3344 2.48725C17.3318 2.49709 17.3282 2.50679 17.3265 2.51694C17.2042 3.24007 16.8014 3.74318 16.1278 4.03197C16.0727 4.05551 16.0583 4.08905 16.0586 4.14397C16.0603 4.46953 16.0616 4.79525 16.0586 5.12081C16.0568 5.32298 16.0687 5.5253 16.0458 5.72762C15.9815 6.29766 15.7528 6.79292 15.358 7.20695C14.8466 7.7433 14.2124 8.01147 13.4713 8.01424C12.2421 8.0187 11.013 8.01547 9.7838 8.01547C9.65433 8.01547 9.65433 8.01562 9.65433 8.14779C9.65433 8.94769 9.65587 9.74759 9.65232 10.5475C9.65186 10.638 9.67948 10.6807 9.76436 10.7169C10.5466 11.0489 11.019 11.8533 10.9216 12.6755C10.8391 13.3729 10.4775 13.8797 9.85649 14.205C9.65633 14.3097 9.43967 14.3627 9.21745 14.3958C9.07346 14.3958 8.92933 14.3958 8.78535 14.3958C8.74244 14.3879 8.6997 14.3799 8.6568 14.3724C7.63967 14.1936 6.9284 13.2204 7.08797 12.2082C7.19954 11.5003 7.59754 11.0015 8.25356 10.7107C8.32701 10.6781 8.35032 10.6401 8.35001 10.562C8.34723 9.7542 8.34831 8.94646 8.34831 8.13871C8.34831 8.01562 8.34816 8.01547 8.22501 8.01547C6.60726 8.01547 4.98951 8.01547 3.37161 8.01547C3.246 8.01547 3.24569 8.01562 3.24569 8.13779C3.24553 8.94292 3.24677 9.7482 3.24383 10.5533C3.24353 10.637 3.26837 10.6798 3.34769 10.7141C4.14152 11.0571 4.60525 11.8308 4.51127 12.6846C4.44152 13.318 4.11899 13.8025 3.57346 14.1365C3.33982 14.2796 3.08195 14.3545 2.81297 14.3958C2.66374 14.3958 2.51467 14.3958 2.36544 14.3958C2.35309 14.3927 2.3409 14.3884 2.3284 14.3865C1.80063 14.3085 1.37362 14.059 1.04846 13.6377C0.835193 13.3617 0.716984 13.0463 0.667755 12.7033C0.667755 12.5495 0.667755 12.3956 0.667755 12.2418C0.670842 12.2293 0.6747 12.2171 0.67686 12.2045C0.7997 11.488 1.1997 10.9883 1.86621 10.7003C1.93195 10.672 1.94384 10.633 1.94368 10.5706C1.9426 8.43319 1.94245 6.29566 1.94445 4.15828C1.94445 4.08443 1.9193 4.05074 1.85201 4.02289C1.44723 3.85488 1.1335 3.58086 0.911737 3.20299C0.78149 2.98097 0.70865 2.73957 0.667755 2.48725C0.667755 2.33339 0.667755 2.17953 0.667755 2.02568C0.67115 2.00814 0.675008 1.99075 0.67794 1.97321C0.77223 1.39271 1.0659 0.941294 1.56066 0.620964C1.80603 0.46203 2.07825 0.376947 2.36529 0.333252C2.51451 0.333252 2.66359 0.333252 2.81282 0.333252C2.85819 0.34156 2.9034 0.349868 2.94877 0.358331C3.92748 0.540497 4.63473 1.44656 4.50865 2.47217C4.41899 3.20176 4.01405 3.71641 3.34121 4.01689C3.26806 4.04951 3.24322 4.08828 3.24353 4.16613C3.246 4.97618 3.24492 5.78624 3.24507 6.5963C3.24507 6.71153 3.24723 6.71338 3.36081 6.71338C4.98581 6.71338 6.61081 6.71338 8.23581 6.71338C8.34754 6.71338 8.348 6.71307 8.348 6.6023C8.34816 5.79224 8.34677 4.98219 8.35001 4.17213C8.35032 4.08659 8.32192 4.04704 8.24383 4.01443C7.46096 3.68764 6.98797 2.8905 7.08118 2.05229C7.15386 1.39794 7.4855 0.90806 8.05078 0.573422C8.27254 0.442182 8.51683 0.374024 8.76961 0.333252Z" fill="#959595"/>
</svg>
