<svg width="48" height="49" viewBox="0 0 48 49" fill="none" xmlns="http://www.w3.org/2000/svg">
<path d="M24 28.5C13.98 28.5 5.82 35.22 5.82 43.5C5.82 44.06 6.26 44.5 6.82 44.5H41.18C41.74 44.5 42.18 44.06 42.18 43.5C42.18 35.22 34.02 28.5 24 28.5Z" fill="#FFC700"/>
<path d="M24 4.5C21.64 4.5 19.48 5.32 17.76 6.7C15.46 8.52 14 11.34 14 14.5C14 16.38 14.52 18.14 15.46 19.64C17.18 22.54 20.34 24.5 24 24.5C26.52 24.5 28.82 23.58 30.58 22C31.36 21.34 32.04 20.54 32.56 19.64C33.48 18.14 34 16.38 34 14.5C34 8.98 29.52 4.5 24 4.5ZM29.18 13.42L23.84 18.34C23.48 18.68 23.02 18.84 22.56 18.84C22.08 18.84 21.6 18.66 21.24 18.3L18.78 15.82C18.04 15.08 18.04 13.9 18.78 13.16C19.52 12.42 20.7 12.42 21.44 13.16L22.62 14.34L26.64 10.64C27.4 9.94 28.58 9.98 29.28 10.74C29.98 11.52 29.94 12.72 29.18 13.42Z" fill="#FFC700"/>
</svg>
