<svg width="32" height="13" viewBox="0 0 32 13" fill="none" xmlns="http://www.w3.org/2000/svg">
<path fill-rule="evenodd" clip-rule="evenodd" d="M8.63124 1.20213C15.7014 1.20213 25.6184 1.84483 30.3013 3.77315C30.7605 3.95686 31.0818 4.0945 31.0818 4.41585C31.0818 4.87484 30.1178 5.15031 29.2455 5.42579C25.7563 6.52788 19.558 7.81309 10.4219 8.4562L2.02007 0.00847505C1.19365 0.00847505 0.505069 0.0545562 0 0.100233L8.7232 8.82343L6.33569 12.2667C20.4305 10.0171 26.8123 7.81329 29.6588 6.52788C30.2556 6.20653 32 5.47166 32 4.41585C32 3.77294 31.4032 3.40571 30.6689 3.08436C27.7305 1.84483 22.8637 1.01821 18.043 0.605099C13.0388 0.100031 6.38157 -0.0376055 2.70865 0.00827305L10.5596 7.85917C12.0746 7.76721 13.5437 7.62937 14.921 7.49174L8.63124 1.20213Z" fill="black"/>
</svg>
