<svg width="32" height="27" viewBox="0 0 32 27" fill="none" xmlns="http://www.w3.org/2000/svg">
<g clip-path="url(#clip0_0_24518)">
<path d="M18.6479 14.4572C18.6225 14.4635 18.521 14.4635 18.4765 14.4635H15.2003V15.2254H18.5337C18.5591 15.2254 18.7559 15.2254 18.794 15.2191C19.4733 15.1556 19.7845 14.5905 19.7845 14.0953C19.7845 13.5873 19.4606 13.0413 18.8448 12.9842C18.7241 12.9715 18.6225 12.9715 18.5781 12.9715H16.4003C16.3051 12.9715 16.1971 12.9651 16.159 12.9524C15.9876 12.908 15.9241 12.7556 15.9241 12.6286C15.9241 12.5143 15.9876 12.3619 16.1654 12.3111C16.2162 12.2985 16.2733 12.2921 16.394 12.2921H19.5368V11.5429H16.3432C16.2098 11.5429 16.1083 11.5492 16.0257 11.5619C15.4797 11.6381 15.0987 12.0762 15.0987 12.635C15.0987 13.0921 15.3844 13.6254 16.013 13.7143C16.1273 13.727 16.286 13.727 16.3559 13.727H18.4765C18.5146 13.727 18.6098 13.727 18.6289 13.7334C18.8702 13.7651 18.9527 13.9429 18.9527 14.1016C18.9527 14.254 18.8575 14.4191 18.6479 14.4572Z" fill="black"/>
<path d="M12.4384 14.4572C12.413 14.4635 12.3114 14.4635 12.2733 14.4635H8.99075V15.2254H12.3241C12.3495 15.2254 12.5463 15.2254 12.5844 15.2191C13.2638 15.1556 13.5749 14.5905 13.5749 14.0953C13.5749 13.5873 13.2511 13.0413 12.6352 12.9842C12.5146 12.9715 12.413 12.9715 12.3685 12.9715H10.1908C10.0955 12.9715 9.98758 12.9651 9.94948 12.9524C9.77805 12.908 9.71456 12.7556 9.71456 12.6286C9.71456 12.5143 9.77805 12.3619 9.95583 12.3111C10.0066 12.2985 10.0638 12.2921 10.1844 12.2921H13.3273V11.5429H10.1336C10.0003 11.5429 9.89869 11.5492 9.81615 11.5619C9.27011 11.6381 8.88916 12.0762 8.88916 12.635C8.88916 13.0921 9.17488 13.6254 9.80345 13.7143C9.91773 13.727 10.0765 13.727 10.1463 13.727H12.2669C12.305 13.727 12.4003 13.727 12.4193 13.7334C12.6606 13.7651 12.7431 13.9429 12.7431 14.1016C12.7431 14.254 12.6543 14.4191 12.4384 14.4572Z" fill="black"/>
<path d="M7.2828 11.5175H6.4574V15.2445H7.2828V11.5175Z" fill="black"/>
<path d="M4.63518 15.2445V11.5175H3.80978V14.2985L1.06057 11.5175H0.000244141V15.2445H0.825644V12.4508L3.59391 15.2445H4.63518Z" fill="black"/>
<path d="M31.1813 11.5175V14.2985L28.4321 11.5175H27.3718V15.2445H28.1972V12.4508L30.9591 15.2445H32.0004V11.5175H31.1813Z" fill="black"/>
<path d="M23.0733 11.5175L20.7495 15.2445H21.7527L22.1654 14.5778H24.8765L25.2892 15.2445H26.286L23.9622 11.5175H23.0733ZM24.4511 13.8731H22.5908L23.5241 12.3746L24.4511 13.8731Z" fill="black"/>
<path d="M4.59075 9.40321C6.25425 4.54605 10.8384 1.28254 16.0067 1.28254C21.1749 1.28254 25.7654 4.54605 27.4226 9.40321L27.4353 9.4413H31.0734V9.00321L29.5623 8.82543C28.6289 8.71749 28.4321 8.30479 28.1781 7.78416L28.1146 7.65717C25.9305 3.00954 21.1749 0 16.0067 0C10.832 0 6.08282 3.00954 3.89868 7.66987L3.83519 7.79685C3.58122 8.31749 3.38439 8.73019 2.45106 8.83813L0.939941 9.01591V9.454H4.5717L4.59075 9.40321Z" fill="black"/>
<path d="M27.4353 17.327L27.4226 17.3651C25.7591 22.2223 21.1749 25.4795 16.0067 25.4795C10.8384 25.4795 6.2479 22.216 4.59075 17.3588L4.57805 17.3207H0.946289V17.7588L2.45741 17.9366C3.39074 18.0445 3.58757 18.4572 3.84154 18.9778L3.90503 19.1048C6.08917 23.7652 10.8447 26.7747 16.013 26.7747C21.1813 26.7747 25.9369 23.7652 28.121 19.1112L28.1845 18.9842C28.4385 18.4636 28.6353 18.0509 29.5686 17.9429L31.0797 17.7651V17.327H27.4353Z" fill="black"/>
</g>
<defs>
<clipPath id="clip0_0_24518">
<rect width="32" height="26.7747" fill="white"/>
</clipPath>
</defs>
</svg>
